<?xml version="1.0" standalone="no"?>
<!DOCTYPE svg PUBLIC "-//W3C//DTD SVG 20010904//EN"
 "http://www.w3.org/TR/2001/REC-SVG-20010904/DTD/svg10.dtd">
<svg version="1.0" xmlns="http://www.w3.org/2000/svg"
 width="7500.000000pt" height="5000.000000pt" viewBox="0 0 7500.000000 5000.000000"
 preserveAspectRatio="xMidYMid meet">

<g transform="translate(0.000000,5000.000000) scale(0.100000,-0.100000)"
fill="#000000" stroke="none">
<path d="M49396 35290 c-224 -36 -402 -126 -547 -277 -111 -115 -183 -239
-240 -413 l-27 -85 -59 -12 c-314 -63 -613 -321 -893 -768 -93 -149 -238 -432
-314 -615 -31 -74 -72 -157 -91 -185 -44 -65 -99 -184 -119 -260 -80 -295 35
-673 321 -1056 109 -144 124 -153 159 -87 30 55 23 206 -22 473 -63 381 -54
491 62 765 59 140 59 141 80 112 80 -114 280 -334 431 -474 356 -332 743 -549
1099 -618 58 -11 119 -20 137 -19 30 0 29 1 -18 20 -105 43 -336 161 -475 245
-129 77 -340 219 -340 228 0 2 46 -16 103 -39 196 -83 370 -114 534 -95 110
13 312 51 388 74 27 9 50 14 52 12 2 -2 35 -90 73 -197 86 -240 105 -328 96
-466 -5 -97 -4 -107 25 -185 136 -373 374 -672 696 -874 47 -30 79 -56 72 -58
-8 -2 -49 -7 -93 -10 -432 -32 -1071 -243 -1502 -495 l-52 -30 -21 87 c-28
109 -81 285 -89 294 -4 4 -43 -18 -87 -48 -92 -64 -186 -111 -302 -152 -107
-38 -180 -82 -268 -164 -168 -156 -288 -401 -349 -712 -28 -141 -41 -260 -24
-211 62 175 154 323 306 493 76 84 107 102 51 29 -54 -71 -133 -234 -162 -337
-73 -254 -83 -553 -32 -910 46 -314 199 -840 325 -1113 l29 -62 0 46 c1 65 34
163 78 236 38 63 132 177 139 170 2 -2 0 -37 -6 -78 -31 -245 -35 -731 -7
-889 49 -284 129 -436 307 -584 143 -119 379 -270 525 -337 l65 -29 0 -3253 0
-3252 26 50 c39 74 80 122 143 167 76 55 161 138 300 294 l118 130 12 90 c273
2055 452 3218 542 3539 31 107 31 114 26 260 -7 170 -27 312 -93 635 -90 447
-190 859 -582 2405 -160 630 -217 864 -211 869 2 2 36 7 76 10 142 13 351 62
522 121 388 135 841 393 1197 681 l101 82 32 -151 c103 -503 191 -1218 255
-2097 65 -879 103 -1848 94 -2410 -5 -287 -7 -312 -33 -425 -50 -220 -176
-608 -334 -1031 -176 -472 -553 -1420 -641 -1614 -16 -36 -122 -282 -235 -548
l-206 -482 3 -97 3 -97 109 119 c60 65 107 112 104 104 -3 -8 -55 -180 -116
-384 -515 -1720 -810 -3012 -893 -3905 -13 -134 -16 -393 -10 -750 4 -241 -15
-422 -104 -945 -43 -257 -176 -942 -194 -1000 -6 -19 -10 393 -11 1080 -1
1099 -1 1109 -20 1040 -43 -164 -105 -278 -214 -392 -118 -125 -236 -198 -403
-250 l-88 -28 -1487 -3 c-819 -1 -1488 0 -1488 3 0 3 330 368 733 812 1119
1234 2026 2234 2066 2278 20 22 205 227 412 455 207 228 394 438 416 465 22
28 93 104 158 170 70 71 126 137 136 161 33 73 51 229 47 403 -2 105 -7 164
-15 172 -20 20 -55 2 -173 -87 -95 -72 -115 -84 -125 -71 -9 12 -37 -15 -156
-147 -81 -88 -429 -471 -774 -851 -345 -379 -1255 -1382 -2023 -2228 l-1396
-1537 -3356 0 c-2287 0 -3376 3 -3419 11 -339 55 -627 317 -712 648 -10 41
-20 87 -21 102 -4 49 -13 32 -25 -45 -51 -319 -315 -601 -643 -688 l-85 -23
-1604 0 -1604 0 -168 365 c-93 201 -184 399 -203 440 -65 142 -274 595 -324
705 l-50 109 34 40 c63 73 79 120 79 226 0 84 -3 101 -28 147 -34 66 -84 116
-150 151 l-52 27 -3140 5 c-1727 3 -6274 3 -10105 0 l-6965 -5 -55 -26 c-78
-36 -124 -80 -159 -150 -39 -78 -47 -148 -27 -227 26 -105 90 -182 185 -226
45 -20 63 -21 637 -26 l592 -5 -1516 -3295 -1517 -3295 0 -78 0 -77 -2708 0
c-2910 0 -2759 3 -2786 -48 -6 -12 -11 -57 -11 -101 0 -70 3 -83 24 -108 l24
-28 32342 0 32342 0 24 28 c21 25 24 38 24 112 0 74 -3 87 -24 112 l-24 28
-1113 3 -1113 2 49 34 c28 19 64 46 80 60 l30 25 -464 1 -464 0 18 -21 c11
-11 46 -38 78 -60 l59 -39 -1983 1 -1984 0 105 38 c58 21 133 50 167 64 l62
27 2594 0 2594 0 139 143 c160 164 224 245 287 366 97 185 140 358 140 566 0
205 -36 363 -123 540 -93 191 -214 327 -450 506 -296 226 -794 564 -813 552
-6 -3 -8 -2 -4 3 15 26 -778 464 -1148 634 -132 61 -268 120 -274 120 -3 0 23
-16 59 -36 152 -84 274 -154 420 -243 85 -51 171 -103 190 -114 235 -139 880
-609 993 -723 165 -169 277 -371 328 -594 28 -123 35 -330 15 -452 -48 -289
-155 -485 -410 -745 l-149 -153 -1708 0 c-940 0 -1709 2 -1709 4 0 2 30 48 66
103 85 126 182 326 233 478 163 492 126 1033 -104 1502 -137 280 -301 481
-595 726 -63 53 -144 122 -180 152 -163 141 -427 288 -645 359 -771 254 -1615
22 -2141 -588 -411 -476 -573 -1095 -449 -1711 66 -323 224 -649 436 -895 40
-47 81 -91 91 -98 10 -7 18 -17 18 -22 0 -6 -178 -11 -445 -12 l-445 -3 64
-85 c35 -47 102 -128 148 -180 l84 -95 574 -5 575 -5 60 -29 c33 -16 102 -44
155 -62 l95 -33 -1640 -1 -1640 0 -1 168 c-2 277 -26 353 -215 662 -95 154
-110 211 -110 388 1 79 3 154 6 165 3 12 9 170 15 351 5 181 11 331 13 333 2
2 61 -10 131 -27 226 -54 479 -98 706 -123 l115 -13 6 46 c3 25 9 91 13 147
l7 102 -43 5 c-346 43 -544 77 -782 137 -88 22 -161 41 -161 42 -1 1 -7 110
-14 242 -63 1258 -351 2375 -825 3209 l-67 118 67 147 c664 1458 732 3055 192
4501 -250 669 -637 1308 -1069 1765 l-57 60 -16 195 c-45 539 -125 906 -282
1297 -104 260 -275 555 -423 730 -34 40 -61 76 -61 79 0 3 14 24 32 46 l32 40
-48 147 c-209 635 -539 1343 -925 1984 -461 766 -1030 1516 -1720 2267 -320
348 -972 980 -1339 1299 -78 68 -142 125 -142 128 0 2 18 27 39 56 92 123 140
240 171 425 45 261 11 491 -101 688 -97 168 -219 293 -510 519 -189 146 -287
243 -325 322 -28 56 -29 64 -28 193 1 146 11 214 94 653 104 556 124 722 124
1047 -1 205 -4 264 -22 360 -42 232 -108 403 -214 557 -68 99 -257 289 -373
376 -100 74 -280 171 -395 212 -251 90 -570 109 -804 49 -32 -8 -60 -13 -63
-10 -7 7 75 52 157 86 86 36 275 87 358 97 53 6 55 7 27 15 -44 13 -360 19
-429 8z m7337 -14497 c490 -660 829 -1466 971 -2314 158 -938 66 -1888 -272
-2812 -58 -158 -165 -417 -172 -417 -5 1 -111 144 -171 231 -26 37 -26 38 -33
306 -8 333 -14 470 -27 693 -11 195 -46 680 -54 750 -2 25 -7 77 -10 115 -5
72 -41 480 -50 570 -3 28 -12 127 -20 220 -9 94 -24 262 -35 375 -11 113 -29
302 -40 420 -11 118 -22 235 -25 260 -20 207 -24 249 -110 1130 -19 201 -37
385 -40 410 -12 105 -17 190 -12 190 3 0 48 -57 100 -127z m-2805 -1928 c397
-1282 819 -2441 1144 -3140 248 -531 461 -906 647 -1138 176 -218 410 -682
701 -1391 78 -188 81 -200 90 -308 31 -359 156 -683 364 -942 36 -44 66 -96
84 -145 120 -315 642 -1813 642 -1842 0 -6 -37 -65 -82 -132 -151 -222 -260
-346 -335 -379 -23 -10 -124 -37 -224 -59 -252 -56 -351 -93 -451 -168 -57
-41 -124 -136 -134 -187 l-6 -34 -3272 0 -3271 0 -1 173 c-1 248 -29 354 -147
545 -74 121 -81 141 -74 219 8 107 78 234 228 413 904 1082 1437 2402 1530
3790 7 111 9 270 5 436 l-6 261 81 129 c417 658 552 885 919 1549 73 132 156
283 186 335 l53 95 60 19 c33 10 84 33 113 52 29 18 56 34 60 34 11 0 57 -152
73 -245 9 -49 20 -171 26 -270 6 -99 12 -181 14 -183 4 -5 52 260 70 388 20
147 29 397 17 477 -7 55 -6 72 15 129 42 120 47 280 14 393 -9 31 -5 43 61
162 69 127 72 131 127 158 80 40 180 71 274 85 l82 13 -69 8 c-38 4 -116 5
-172 1 l-103 -7 108 198 c461 853 456 843 463 820 4 -12 47 -152 96 -312z
m-33063 -3127 c4 -4 -52 -137 -125 -295 -73 -158 -141 -308 -152 -333 -10 -25
-528 -1153 -1150 -2507 l-1132 -2463 -3368 0 -3368 0 24 53 c44 100 2528 5502
2543 5531 l15 28 3353 -3 c1844 -2 3357 -7 3360 -11z m4314 -180 c46 -101 157
-343 247 -539 l164 -355 0 -2832 0 -2832 -3655 0 -3654 0 18 43 c11 23 90 195
176 382 87 187 179 387 205 445 89 197 2222 4835 2272 4940 45 94 361 779 410
888 l19 42 1857 0 1858 0 83 -182z m7208 57 c91 -199 439 -955 549 -1194 57
-123 104 -225 104 -227 0 -7 -6674 -2 -6704 5 -27 6 -44 38 -298 591 -148 322
-306 667 -352 768 l-84 182 3365 -2 3365 -3 55 -120z m30438 -3099 c646 -144
1127 -637 1257 -1288 29 -149 31 -431 4 -582 -170 -939 -1096 -1531 -2019
-1291 -590 153 -1045 634 -1178 1245 -27 124 -37 390 -19 527 83 665 570 1216
1220 1377 156 39 226 45 435 41 156 -3 210 -8 300 -29z m-44735 -2841 c0 -2
-54 -122 -120 -266 -66 -144 -123 -278 -126 -299 -3 -20 -1 -53 4 -73 l10 -37
-3404 0 c-1872 0 -3404 2 -3404 5 0 6 262 580 291 638 l19 37 3365 0 c1851 0
3365 -2 3365 -5z"/>
<path d="M23430 27650 c-242 -27 -472 -94 -684 -201 -513 -258 -886 -727
-1022 -1284 -48 -197 -54 -289 -54 -814 l0 -487 138 -91 c171 -113 300 -220
467 -387 174 -175 223 -236 278 -347 216 -442 119 -887 -286 -1315 -117 -123
-271 -253 -418 -350 l-101 -67 7 -96 c20 -287 95 -612 207 -896 46 -119 143
-320 185 -389 l31 -49 243 -2 c295 -2 523 -29 755 -88 l92 -24 36 106 c61 181
98 362 112 542 l7 87 -59 37 c-162 103 -341 267 -445 407 -70 94 -117 184
-156 295 -25 71 -27 92 -28 223 0 133 2 152 29 230 15 47 42 112 59 144 56
105 266 322 449 462 117 91 294 188 382 210 27 6 28 5 22 -22 -37 -179 -84
-576 -92 -784 -9 -231 14 -359 72 -397 53 -34 102 39 134 201 33 161 42 337
42 744 l-1 392 39 20 c107 55 417 185 652 273 344 131 636 203 790 195 l66 -3
-80 -140 c-189 -330 -375 -715 -412 -855 -24 -90 -19 -124 17 -128 78 -9 261
177 551 561 l126 167 0 1054 c0 1139 -1 1162 -54 1381 -186 760 -800 1332
-1576 1466 -134 23 -394 32 -520 19z"/>
<path d="M43249 22033 c-6 -16 -27 -54 -47 -86 -30 -47 -41 -56 -57 -51 -38
12 -69 9 -71 -6 -2 -13 187 -199 406 -398 l69 -63 42 41 c23 22 71 59 106 82
l64 42 -43 41 c-126 123 -449 425 -453 425 -3 0 -10 -12 -16 -27z"/>
<path d="M24383 21656 c-89 -17 -160 -50 -169 -79 -9 -30 42 -70 117 -92 33
-9 169 -29 303 -45 274 -33 361 -49 491 -91 116 -37 187 -80 335 -207 l120
-102 0 115 c0 101 -2 116 -17 121 -88 27 -244 105 -405 202 -107 65 -233 131
-283 151 -88 34 -94 35 -255 37 -109 2 -189 -1 -237 -10z"/>
<path d="M21670 21173 l0 -381 61 14 c64 15 225 42 272 46 15 1 27 6 27 10 0
38 -222 475 -322 633 l-38 60 0 -382z"/>
<path d="M43640 21340 c0 -13 30 -13 50 0 11 7 7 10 -17 10 -18 0 -33 -4 -33
-10z"/>
<path d="M23574 21038 c-51 -55 -108 -140 -184 -274 l-18 -31 66 -23 c333
-114 682 -305 957 -525 123 -98 321 -289 425 -410 421 -491 686 -1105 753
-1745 2 -19 5 589 5 1351 l2 1387 -66 -24 c-164 -60 -520 -101 -784 -90 -363
14 -636 72 -844 179 -103 52 -206 138 -247 203 -11 19 -24 34 -28 34 -4 0 -21
-15 -37 -32z"/>
<path d="M44407 20908 c-42 -23 -168 -58 -210 -58 -16 0 -27 -4 -25 -9 5 -14
948 -904 972 -918 35 -20 110 -16 140 8 50 39 69 104 47 161 -9 25 -855 831
-875 835 -6 1 -28 -7 -49 -19z"/>
<path d="M21798 19262 l-2778 -2 0 -35 0 -35 2780 0 c1529 0 2783 -1 2788 -2
4 -2 8 13 10 33 2 24 -2 38 -10 40 -7 2 -1263 3 -2790 1z"/>
<path d="M49417 18123 c-4 -3 -6 -67 -6 -142 l2 -136 7 100 c4 55 11 119 15
143 6 39 -1 53 -18 35z"/>
</g>
</svg>
